<?xml version="1.0" encoding="utf-8" ?>
<svg baseProfile="full" height="200mm" version="1.1" viewBox="0,0,200,200" width="200mm" xmlns="http://www.w3.org/2000/svg" xmlns:ev="http://www.w3.org/2001/xml-events" xmlns:xlink="http://www.w3.org/1999/xlink"><defs /><rect fill="#1a1a1a" height="200" width="200" x="0" y="0" /><rect fill="#1a1a1a" height="200" width="180" x="10" y="0" /><text alignment-baseline="middle" fill="#e1ed5e" style="dominant-baseline: central; font-size:9.0px; font-family:Arial;" text-anchor="middle" x="100.0" y="100.0">2026</text><line stroke="#e1ed5e" stroke-width="0.3" x1="100.0" x2="100.0" y1="15.0" y2="10.0" /><path d="M 100.0 14.0 a86.0,86.0 0 0,1 42.46469731375804,11.215312516191453" fill="none" id="id25" stroke="none" /><text fill="#e1ed5e" style="font-size:6.75px; font-family:Arial;" text-anchor="middle"><textPath startOffset="22.20632615414155" xlink:href="#id25">January</textPath></text><path d="M 100.0 79.0 l 0.0 -63.0 a84.0,84.0 0 0,0 1.4459219170901134,0.012445506434235476 l -1.084441437817585 62.990665870174325" fill="#4dd2ff" stroke="none" /><path d="M 101.44485096284872 79.0497635885617 l 0.6893909845867927 -9.996120346233777 a31.019864365649788,31.019864365649788 0 0,0 0.532374449620462,0.04132250345611643 l -0.8613556235695958 9.982772580589195" fill="#ff770a" stroke="none" /><path d="M 102.52436894288641 79.15227682838746 l 0.7355657413082201 -6.074734437107114 a27.11910577136573,27.11910577136573 0 0,0 0.4629428569082134,0.060103269375642816 l -0.8400233267242796 6.061172844567335" fill="#ff4006" stroke="none" /><path d="M 103.2404852339499 79.25152402106235 l 3.0233609751407786 -19.358252866316164 a40.592923866086,40.592923866086 0 0,0 0.6894433514505283,0.11376406036792666 l -3.356133532730182 19.303342543008615" fill="#fff316" stroke="none" /><path d="M 104.307194497241 79.44645832069477 l 2.5976323418495584 -12.395666051281344 a33.66492126459188,33.66492126459188 0 0,0 0.5661434231137732,0.12373702425198999 l -2.8106184891168593 12.349115528933483" fill="#ff9a0e" stroke="none" /><path d="M 105.01212808612495 79.60689891045804 l 2.9282155147303395 -11.914179761121982 a33.26874588053058,33.26874588053058 0 0,0 0.5549402841212644,0.14146663468336673 l -3.1328646875366286 11.862010130269747" fill="#ff950d" stroke="none" /><path d="M 105.71112130821622 79.79150937346287 l 3.4620417663772716 -12.250245583798833 a33.7300530264223,33.7300530264223 0 0,0 0.5573646836607647,0.1627100351065391 l -3.6723966677614635 12.18883721977359" fill="#ff9b0e" stroke="none" /><path d="M 106.74666289553966 80.11325718540242 l 3.2037642060660887 -9.443547986778947 a30.972196531690848,30.972196531690848 0 0,0 0.5033984785692927,0.17562584468459339 l -3.365844688698655 9.387001288922146" fill="#ff760a" stroke="none" /><path d="M 107.4271985657038 80.35727306442388 l 4.338699332130902 -11.474566821216788 a33.26743639189551,33.26743639189551 0 0,0 0.5338898153034057,0.20714095386178477 l -4.535572312433975 11.398183163464456" fill="#ff950d" stroke="none" /><path d="M 109.08828744355905 81.06846463323043 l 5.309221834752623 -11.059478648629009 a33.26784025287642,33.26784025287642 0 0,0 0.5141128593602543,0.25227294732044264 l -5.49880596112331 10.966450541173735" fill="#ff950d" stroke="none" /><path d="M 109.73455568895987 81.39251694778311 l 0.780727549129336 -1.4923510741531538 a22.684234910722246,22.684234910722246 0 0,0 0.3444276508094858,0.18398132277750387 l -0.8063002464671329 1.478691024873896" fill="#ff0000" stroke="none" /><line stroke="#e1ed5e" stroke-width="0.3" x1="143.23703022742887" x2="145.7803849466894" y1="26.81831364943548" y2="22.513508569990506" /><path d="M 143.74570117128098 25.957352633546492 a86.0,86.0 0 0,1 28.547481713284135,27.462654790039103" fill="none" id="id26" stroke="none" /><text fill="#e1ed5e" style="font-size:6.75px; font-family:Arial;" text-anchor="middle"><textPath startOffset="19.985693538727396" xlink:href="#id26">February</textPath></text><path d="M 110.68208982089419 81.91981866633111 l 3.1257901045306022 -5.290617552228208 a27.145014065201693,27.145014065201693 0 0,0 0.4002440984591533,0.2411425909598558 l -3.216396269207393 5.236028351809738" fill="#ff4106" stroke="none" /><path d="M 111.2981086023043 82.29822771554956 l 3.9584468939841866 -6.202058059798332 a28.35763725591324,28.35763725591324 0 0,0 0.40920472187570917,0.26615813387782616 l -4.064618641644176 6.133001001760977" fill="#ff5207" stroke="none" /><path d="M 113.89432698308785 84.25364557470407 l 8.142949448354655 -9.228354006432395 a33.30732072331327,33.30732072331327 0 0,0 0.4266334908184596,0.3830357604723369 l -8.300593926769103 9.086819237190761" fill="#ff960d" stroke="none" /><path d="M 114.42810811169701 84.74124197986012 l 8.171956691238332 -8.64242967527933 a32.89421989268837,32.89421989268837 0 0,0 0.4080712128734782,0.39256418346988775 l -8.319511147724228 8.50048240504714" fill="#ff900d" stroke="none" /><path d="M 115.68641384162765 86.03803664274999 l 12.2878768742177 -10.93703687715698 a37.4502490476049,37.4502490476049 0 0,0 0.42445066592218605,0.4852204848656506 l -12.474319403717734 10.723900836088381" fill="#ffcc13" stroke="none" /><path d="M 117.2510076193507 88.02491185347247 l 8.14802242115278 -5.656092030458433 a30.91875226188374,30.91875226188374 0 0,0 0.29972864345566863,0.43981479969916676 l -8.24417553027718 5.51499920748886" fill="#ff750a" stroke="none" /><path d="M 117.65298651832404 88.62581576622439 l 10.316245010668775 -6.64696997475842 a33.27220929439717,33.27220929439717 0 0,0 0.30606060226696935,0.48411437217372894 l -10.4291332091817 6.468407954870485" fill="#ff950d" stroke="none" /><line stroke="#e1ed5e" stroke-width="0.3" x1="172.23445277983987" x2="176.4835382374775" y1="55.19839476539836" y2="52.563006222186495" /><path d="M 173.08426987136738 54.67131705675599 a86.0,86.0 0 0,1 12.851231095245387,41.99856678651699" fill="none" id="id27" stroke="none" /><text fill="#e1ed5e" style="font-size:6.75px; font-family:Arial;" text-anchor="middle"><textPath startOffset="22.20632615414155" xlink:href="#id27">March</textPath></text><path d="M 118.21658344932153 89.55222093294921 l 12.088123560036035 -6.932916078463207 a34.93513747882352,34.93513747882352 0 0,0 0.2946901264177107,0.5242208524891572 l -12.20567132774618 6.723811716039256" fill="#ffab0f" stroke="none" /><path d="M 119.196687751892 91.48605970444005 l 11.247993941289089 -4.988607935841265 a33.304616078562326,33.304616078562326 0 0,0 0.22791346360058254,0.5260556972606623 l -11.332198114732352 4.7942530939940005" fill="#ff950d" stroke="none" /><path d="M 119.34039704204932 91.81776055985345 l 10.876633890613055 -4.601519948236735 a32.80995980621666,32.80995980621666 0 0,0 0.2155744241615924,0.5220305673172382 l -10.954230001660845 4.413614810466194" fill="#ff8f0d" stroke="none" /><path d="M 119.61058180528143 92.48833698450437 l 12.722157761801316 -4.873112021127628 a34.623528136522495,34.623528136522495 0 0,0 0.20839309934958652,0.5583898997263835 l -12.804155449652528 4.653398984371911" fill="#ffa70f" stroke="none" /><path d="M 120.18372546131832 94.20196356495316 l 9.516258441391928 -2.7336684337217827 a30.901116999050664,30.901116999050664 0 0,0 0.1424589014183214,0.5125004648808488 l -9.561904113376613 2.569456665421982" fill="#ff750a" stroke="none" /><path d="M 120.37134235888165 94.90015583598534 l 11.90018558553857 -2.979140546555118 a33.26742415368396,33.26742415368396 0 0,0 0.13428506609730326,0.5566982929645299 l -11.949703451896692 2.773857021931182" fill="#ff950d" stroke="none" /><path d="M 120.6074358757038 95.95851677861258 l 25.614722249638962 -5.023500779855254 a47.10267334989571,47.10267334989571 0 0,0 0.14919048665612744,0.7969815453018024 l -25.69739846020495 4.581841157090889" fill="#bdff1f" stroke="none" /><path d="M 120.73433829027371 96.67025291283417 l 8.872894679839316 -1.424906587387127 a29.986579926885426,29.986579926885426 0 0,0 0.07745691604499638,0.510344299152125 l -8.896107489323612 1.27196317584292" fill="#ff6809" stroke="none" /><path d="M 120.83666639777658 97.38593545837742 l 8.513025743267056 -1.0680018728796854 a29.57975729878195,29.57975729878195 0 0,0 0.059032246982450756,0.5057522417599428 l -8.530148343253096 0.9213058927948898" fill="#ff6309" stroke="none" /><path d="M 120.94382443527127 98.46500227214037 l 22.00356471512561 -1.6126673496006485 a43.06258271719766,43.06258271719766 0 0,0 0.04781876089469144,0.7397350659563312 l -22.028064067024715 1.233673219391282" fill="#ecff1a" stroke="none" /><path d="M 120.98425023603335 99.18683210126433 l 7.980300078923809 -0.30924735329906344 a28.98628970644027,28.98628970644027 0 0,0 0.015029122805757716,0.4987434183963967 l -7.9844408961852125 0.1718337874776677" fill="#ff5b08" stroke="none" /><line stroke="#e1ed5e" stroke-width="0.3" x1="184.98032266829074" x2="189.97916517819016" y1="98.17113171792111" y2="98.06355123074" /><path d="M 185.9800911702706 98.14961562048488 a86.0,86.0 0 0,1 -9.607161424134198,41.387399972396054" fill="none" id="id28" stroke="none" /><text fill="#e1ed5e" style="font-size:6.75px; font-family:Arial;" text-anchor="middle"><textPath startOffset="21.466115282336823" xlink:href="#id28">April</textPath></text><path d="M 120.99980553446 99.90962569577887 l 12.736972049245816 -0.054814554589358584 a33.73708999805937,33.73708999805937 0 0,0 -0.002499280112107702,0.5807446793946538 l -12.736028471844206 -0.16443960300897995" fill="#ff9b0e" stroke="none" /><path d="M 120.9904718944345 100.63252640178507 l 10.650291014214412 0.32093562674839515 a31.655125450409894,31.655125450409894 0 0,0 -0.02110020193492068,0.5445024553006695 l -10.643188679428288 -0.5042153290630709" fill="#ff7f0b" stroke="none" /><path d="M 120.9764740272857 100.99374915477107 l 22.031974140015908 1.0437529039007802 a43.05668389923406,43.05668389923406 0 0,0 -0.041444414299318284,0.7400178580970839 l -22.01074337482906 -1.4228424783332876" fill="#ecff1a" stroke="none" /><path d="M 120.92983693683757 101.71520430193887 l 14.69688317857409 1.2044125011129767 a35.746151519548796,35.746151519548796 0 0,0 -0.055534886898386496,0.6128228492762078 l -14.67397369539863 -1.4572167389377548" fill="#ffb610" stroke="none" /><path d="M 120.70491114924044 103.5080841355445 l 25.65280642206729 4.346418228640874 a47.01841326342401,47.01841326342401 0 0,0 -0.1420707427205014,0.7968081738442454 l -25.574189237007598 -4.787345153218338" fill="#beff1f" stroke="none" /><path d="M 120.5718875245553 104.21870165774334 l 9.13617160450104 1.8735656729276875 a30.32630044110011,30.32630044110011 0 0,0 -0.10926993689558026,0.5104727673410584 l -9.102567628881017 -2.030552259684915" fill="#ff6d0a" stroke="none" /><path d="M 119.9155931802556 106.66101706037122 l 5.701604952035015 1.90697246691373 a27.01205813500146,27.01205813500146 0 0,0 -0.1512793196081269,0.43968851506105827 l -5.667934801483657 -2.0048336850640887" fill="#ff3f05" stroke="none" /><path d="M 119.67450827220406 107.3425965602758 l 8.046458444735391 3.002966949989112 a29.588556572881174,29.588556572881174 0 0,0 -0.18218902968784195,0.47563806621090304 l -7.993575135454043 -3.141028583033159" fill="#ff6309" stroke="none" /><path d="M 119.41010516605496 108.01547362559984 l 8.33812265871849 3.443258121798122 a30.021103921647473,30.021103921647473 0 0,0 -0.2013544300422749,0.47594239348285167 l -8.277617247483906 -3.586275040947137" fill="#ff6909" stroke="none" /><line stroke="#e1ed5e" stroke-width="0.3" x1="174.80103733775053" x2="179.2010983576182" y1="140.37084112569926" y2="142.7455964860345" /><path d="M 175.68104954172406 140.8457921977663 a86.0,86.0 0 0,1 -30.038265399797805,32.042727171017184" fill="none" id="id29" stroke="none" /><text fill="#e1ed5e" style="font-size:6.75px; font-family:Arial;" text-anchor="middle"><textPath startOffset="22.206326154141568" xlink:href="#id29">May</textPath></text><line stroke="#e1ed5e" stroke-width="0.3" x1="143.8653032363475" x2="146.44561519142675" y1="172.8068346515853" y2="177.08958963109032" /><path d="M 144.38136562736335 173.6633856474863 a86.0,86.0 0 0,1 -40.68145358897372,12.25698825130547" fill="none" id="id30" stroke="none" /><text fill="#e1ed5e" style="font-size:6.75px; font-family:Arial;" text-anchor="middle"><textPath startOffset="21.466115282336833" xlink:href="#id30">June</textPath></text><line stroke="#e1ed5e" stroke-width="0.3" x1="102.19456741930631" x2="102.32365962044197" y1="184.97166512339345" y2="189.96999836594603" /><path d="M 102.22038585953345 185.97133177190398 a86.0,86.0 0 0,1 -42.740103519485714,-10.115201625700543" fill="none" id="id31" stroke="none" /><text fill="#e1ed5e" style="font-size:6.75px; font-family:Arial;" text-anchor="middle"><textPath startOffset="22.20632615414155" xlink:href="#id31">July</textPath></text><line stroke="#e1ed5e" stroke-width="0.3" x1="58.666819895761336" x2="56.23545636021788" y1="174.27360380694188" y2="178.64263932499728" /><path d="M 58.180547188652646 175.14741091055294 a86.0,86.0 0 0,1 -31.652253787137756,-30.449443065178592" fill="none" id="id32" stroke="none" /><text fill="#e1ed5e" style="font-size:6.75px; font-family:Arial;" text-anchor="middle"><textPath startOffset="22.20632615414155" xlink:href="#id32">August</textPath></text><line stroke="#e1ed5e" stroke-width="0.3" x1="26.63291911575756" x2="22.317208475507996" y1="142.92168965132927" y2="145.44649492493687" /><path d="M 25.769776987707644 143.4266507060508 a86.0,86.0 0 0,1 -11.730757126820373,-40.83630448921669" fill="none" id="id33" stroke="none" /><text fill="#e1ed5e" style="font-size:6.75px; font-family:Arial;" text-anchor="middle"><textPath startOffset="21.46611528233685" xlink:href="#id33">September</textPath></text><line stroke="#e1ed5e" stroke-width="0.3" x1="15.007084014347285" x2="10.007500721073583" y1="101.09737516637583" y2="101.16192664675087" /><path d="M 14.007167355692545 101.11028546245083 a86.0,86.0 0 0,1 10.666146001902534,-42.60595125391555" fill="none" id="id34" stroke="none" /><text fill="#e1ed5e" style="font-size:6.75px; font-family:Arial;" text-anchor="middle"><textPath startOffset="22.20632615414155" xlink:href="#id34">October</textPath></text><line stroke="#e1ed5e" stroke-width="0.3" x1="26.266209847984243" x2="21.928928074336255" y1="57.711370442889674" y2="55.22380399835377" /><path d="M 25.398753493254645 57.213857153982495 a86.0,86.0 0 0,1 29.58750427330803,-30.492523968695096" fill="none" id="id35" stroke="none" /><text fill="#e1ed5e" style="font-size:6.75px; font-family:Arial;" text-anchor="middle"><textPath startOffset="21.46611528233685" xlink:href="#id35">November</textPath></text><line stroke="#e1ed5e" stroke-width="0.3" x1="56.762969772571076" x2="54.21961505331055" y1="26.818313649435495" y2="22.513508569990535" /><path d="M 56.25429882871897 25.957352633546506 a86.0,86.0 0 0,1 42.265352541879196,-11.944610805530505" fill="none" id="id36" stroke="none" /><text fill="#e1ed5e" style="font-size:6.75px; font-family:Arial;" text-anchor="middle"><textPath startOffset="22.20632615414155" xlink:href="#id36">December</textPath></text></svg>