<?xml version="1.0" encoding="utf-8" ?>
<svg baseProfile="full" height="200mm" version="1.1" viewBox="0,0,200,200" width="200mm" xmlns="http://www.w3.org/2000/svg" xmlns:ev="http://www.w3.org/2001/xml-events" xmlns:xlink="http://www.w3.org/1999/xlink"><defs /><rect fill="#1a1a1a" height="200" width="200" x="0" y="0" /><text alignment-baseline="middle" fill="#e1ed5e" style="dominant-baseline: central; font-size:9.0px; font-family:Arial;" text-anchor="middle" x="100.0" y="100.0">2024</text><line stroke="#e1ed5e" stroke-width="0.3" x1="100.0" x2="100.0" y1="15.0" y2="10.0" /><path d="M 100.0 14.0 a86.0,86.0 0 0,1 42.35913384403234,11.155469271406648" fill="none" id="id1" stroke="none" /><text fill="#e1ed5e" style="font-size:6.75px; font-family:Arial;" text-anchor="middle"><textPath startOffset="22.145653131862478" xlink:href="#id1">January</textPath></text><line stroke="#e1ed5e" stroke-width="0.3" x1="143.13028292997686" x2="145.6673583964461" y1="26.7553504044142" y2="22.446841604673864" /><path d="M 143.63769802327073 25.89364864446614 a86.0,86.0 0 0,1 29.32050498858742,28.57503671076993" fill="none" id="id2" stroke="none" /><text fill="#e1ed5e" style="font-size:6.75px; font-family:Arial;" text-anchor="middle"><textPath startOffset="20.669276256404974" xlink:href="#id2">February</textPath></text><line stroke="#e1ed5e" stroke-width="0.3" x1="172.87174338648825" x2="177.1583165268699" y1="56.24261187166439" y2="53.66864786411523" /><path d="M 173.72905801456457 55.72781907015455 a86.0,86.0 0 0,1 12.242430191666344,42.057860355516425" fill="none" id="id3" stroke="none" /><text fill="#e1ed5e" style="font-size:6.75px; font-family:Arial;" text-anchor="middle"><textPath startOffset="22.145653131862474" xlink:href="#id3">March</textPath></text><line stroke="#e1ed5e" stroke-width="0.3" x1="184.99686870605535" x2="189.99668451229388" y1="99.2704041080226" y2="99.22748670261217" /><path d="M 185.99683186730306 99.26182062694052 a86.0,86.0 0 0,1 -10.086455211305974,41.156179273409016" fill="none" id="id4" stroke="none" /><text fill="#e1ed5e" style="font-size:6.75px; font-family:Arial;" text-anchor="middle"><textPath startOffset="21.40746469413373" xlink:href="#id4">April</textPath></text><line stroke="#e1ed5e" stroke-width="0.3" x1="174.33088141563837" x2="178.70328620479359" y1="141.23008692659167" y2="143.65538615756765" /><path d="M 175.20536237346943 141.71514677278685 a86.0,86.0 0 0,1 -30.301960400862466,31.631185727798858" fill="none" id="id5" stroke="none" /><text fill="#e1ed5e" style="font-size:6.75px; font-family:Arial;" text-anchor="middle"><textPath startOffset="22.145653131862474" xlink:href="#id5">May</textPath></text><line stroke="#e1ed5e" stroke-width="0.3" x1="143.1302829299769" x2="145.66735839644613" y1="173.24464959558577" y2="177.55315839532614" /><path d="M 143.63769802327073 174.10635135553383 a86.0,86.0 0 0,1 -40.68552437913181,11.842963189579606" fill="none" id="id6" stroke="none" /><text fill="#e1ed5e" style="font-size:6.75px; font-family:Arial;" text-anchor="middle"><textPath startOffset="21.407464694133747" xlink:href="#id6">June</textPath></text><line stroke="#e1ed5e" stroke-width="0.3" x1="101.45913802915013" x2="101.54496967792366" y1="184.9874750549273" y2="189.98673829345242" /><path d="M 101.47630435890484 185.9873277026323 a86.0,86.0 0 0,1 -42.54439059252881,-10.42667462771756" fill="none" id="id7" stroke="none" /><text fill="#e1ed5e" style="font-size:6.75px; font-family:Arial;" text-anchor="middle"><textPath startOffset="22.145653131862474" xlink:href="#id7">July</textPath></text><path d="M 95.70440661134978 120.55596938700252 l -0.5018216695929171 2.401398350491426 a23.453271086899278,23.453271086899278 0 0,0 -0.39338683476312764,-0.0857368296826605 l 0.5429709209751812 -2.392430062675047" fill="#ff1a02" stroke="none" /><path d="M 93.61358852112213 120.00534299687104 l -1.1753364227966356 3.6817246042676675 a24.864778359546936,24.864778359546936 0 0,0 -0.4055057724558697,-0.13329780177432132 l 1.2383649329002488 -3.6610058810913246" fill="#ff2e04" stroke="none" /><path d="M 92.93061703081489 119.77432235084164 l -1.4878513738555388 4.1617850956734115 a25.419746247608924,25.419746247608924 0 0,0 -0.40963418535192214,-0.1504233468859118 l 1.5590747108615797 -4.13563089977878" fill="#ff3605" stroke="none" /><path d="M 92.25597844496254 119.51999308798841 l -1.336439998385885 3.368701823154664 a24.62411697418988,24.62411697418988 0 0,0 -0.39157685765025957,-0.15925089907510326 l 1.3940713172265855 -3.34526366750027" fill="#ff2b04" stroke="none" /><line stroke="#e1ed5e" stroke-width="0.3" x1="58.13341422392154" x2="55.67067388415222" y1="173.97424548756322" y2="178.32567169271397" /><path d="M 57.64086615596768 174.84453072859336 a86.0,86.0 0 0,1 -31.369924170532247,-30.572349798747897" fill="none" id="id8" stroke="none" /><text fill="#e1ed5e" style="font-size:6.75px; font-family:Arial;" text-anchor="middle"><textPath startOffset="22.145653131862474" xlink:href="#id8">August</textPath></text><path d="M 89.03521579738668 117.91015095944536 l -0.8648774051824487 1.412712243305178 a22.656432554733055,22.656432554733055 0 0,0 -0.32995951375685245,-0.20591914028439726 l 0.8890010477290138 -1.397657306179233" fill="#ff0f01" stroke="none" /><path d="M 88.4268655584334 117.5232005979908 l -1.5897000589146246 2.4070085043640033 a23.88458596983931,23.88458596983931 0 0,0 -0.34018896765929135,-0.22889431959242248 l 1.6307853146709215 -2.3793645107144594" fill="#ff2003" stroke="none" /><path d="M 87.83215693770417 117.11559508785305 l -1.8246615398578256 2.5666149644349927 a24.149111320785273,24.149111320785273 0 0,0 -0.3358094803934584,-0.24310016691618958 l 1.8684520306252381 -2.5349140261457377" fill="#ff2403" stroke="none" /><path d="M 86.13680546590413 115.77377054828092 l -1.4593825466856187 1.6605094429691742 a23.21067614719126,23.21067614719126 0 0,0 -0.2970247824679461,-0.265601392028534 l 1.4876723559769358 -1.635212521057258" fill="#ff1702" stroke="none" /><path d="M 85.60350026404147 115.28858382429668 l -1.9904742016633545 2.1138146244132217 a23.903480637764023,23.903480637764023 0 0,0 -0.29632065207598557,-0.28386848164446316 l 2.0264673396046544 -2.079334012463176" fill="#ff2103" stroke="none" /><path d="M 85.08716467003676 114.78537596483092 l -2.236294217266374 2.217180706329312 a24.149111320785273,24.149111320785273 0 0,0 -0.2893445308946659,-0.296892978559851 l 2.2740255493118493 -2.1784650357017235" fill="#ff2403" stroke="none" /><path d="M 84.58840730492382 114.26474011684316 l -1.4374959370971605 1.3305247788088872 a22.958747241528442,22.958747241528442 0 0,0 -0.2652307079326166,-0.29153500959926365 l 1.4601243458716568 -1.3056521936519496" fill="#ff1302" stroke="none" /><path d="M 84.1078160697243 113.72728997021213 l -1.7254042657441495 1.4903631102953117 a23.27995659624854,23.27995659624854 0 0,0 -0.2586352588201547,-0.30467168456103366 l 1.7507340880714164 -1.4605246432847236" fill="#ff1802" stroke="none" /><path d="M 81.99639281039703 110.81064883170644 l -2.9700378978618707 1.7834224215459777 a24.46434996044116,24.46434996044116 0 0,0 -0.21310346535001948,-0.3618962730318366 l 3.00021507334166 -1.7321749802205824" fill="#ff2903" stroke="none" /><line stroke="#e1ed5e" stroke-width="0.3" x1="26.387840678322732" x2="22.057713659400548" y1="142.50000000000003" y2="145.00000000000006" /><path d="M 25.521815274538298 143.00000000000003 a86.0,86.0 0 0,1 -11.493303480769221,-40.785679425670985" fill="none" id="id9" stroke="none" /><text fill="#e1ed5e" style="font-size:6.75px; font-family:Arial;" text-anchor="middle"><textPath startOffset="21.40746469413373" xlink:href="#id9">September</textPath></text><path d="M 81.63589988554817 110.18625677009913 l -3.7676963472091147 2.08987765179052 a25.308494442868223,25.308494442868223 0 0,0 -0.20747500059877866,-0.38173063270541835 l 3.8030166974232227 -2.024892185610515" fill="#ff3505" stroke="none" /><path d="M 81.29705330413844 109.54985784667822 l -2.2545575952549273 1.1511931724960434 a23.531457222771735,23.531457222771735 0 0,0 -0.18060963416288794,-0.3613402539232978 l 2.273987142629552 -1.1123210624089928" fill="#ff1b02" stroke="none" /><path d="M 80.9802524753101 108.90220220490708 l -6.856449125277845 3.2091643930419 a28.5703124578244,28.5703124578244 0 0,0 -0.2040947958389898,-0.4459839621544653 l 6.910528385971891 -3.090991448672746" fill="#ff6209" stroke="none" /><path d="M 80.68587082218212 108.24405325689762 l -2.907887248397876 1.2412041526768964 a24.161707766068417,24.161707766068417 0 0,0 -0.15955259138170366,-0.382868136234652 l 2.928765684316065 -1.191103507000963" fill="#ff2403" stroke="none" /><path d="M 80.28708602549918 107.23885506374661 l -6.5422281511254194 2.4023967963954482 a27.96938014092423,27.96938014092423 0 0,0 -0.1616361532323274,-0.45212508807321106 l 6.5825044744016905 -2.2897367519413154" fill="#ff5a08" stroke="none" /><path d="M 80.05021161711548 106.5578916946017 l -7.27343975061421 2.390924114897406 a28.656333582662974,28.656333582662974 0 0,0 -0.14960691795795486,-0.46864153967408423 l 7.313411384349419 -2.2657135415319303" fill="#ff6309" stroke="none" /><path d="M 79.83685265289637 105.86919833188381 l -4.23306637156171 1.23218392739129 a25.408755849099386,25.408755849099386 0 0,0 -0.11830983149685234,-0.4198398544343285 l 4.253594695133137 -1.1593361490539658" fill="#ff3605" stroke="none" /><path d="M 79.64726062577567 105.17358676015961 l -4.974840876902386 1.2645850969446655 a26.133051452879997,26.133051452879997 0 0,0 -0.10678770404040959,-0.4357302738782272 l 4.995816107459088 -1.1789989984583387" fill="#ff4006" stroke="none" /><path d="M 79.407916724674 104.11899336999214 l -6.002957448493097 1.2007596123271094 a27.121872407606574,27.121872407606574 0 0,0 -0.08740179362252383,-0.4573231167155814 l 6.0226855343977785 -1.0975339305782132" fill="#ff4e07" stroke="none" /><path d="M 79.2786578344484 103.40968896794605 l -4.49662162334865 0.7399173769568121 a25.557091588753654,25.557091588753654 0 0,0 -0.06751758602998507,-0.43351133616068505 l 4.508660701516903 -0.6626178588646772" fill="#ff3805" stroke="none" /><path d="M 79.13060592940153 102.33845913500099 l -9.38857787509296 1.052009733603619 a30.447333962355824,30.447333962355824 0 0,0 -0.0537433250141069,-0.5199179174972435 l 9.405253592588734 -0.8906872938234439" fill="#ff7b0b" stroke="none" /><path d="M 79.01933749520258 100.90099992219065 l -13.344354103846566 0.5730639824410214 a34.35665335242395,34.35665335242395 0 0,0 -0.02024639709414444,-0.5894517606390703 l 13.35222518793756 -0.3439059572378312" fill="#ffae10" stroke="none" /><line stroke="#e1ed5e" stroke-width="0.3" x1="15.003131293944662" x2="10.003315487706104" y1="100.72959589197737" y2="100.7725132973878" /><path d="M 14.003168132696942 100.73817937305945 a86.0,86.0 0 0,1 10.791469493833604,-42.45332614584628" fill="none" id="id10" stroke="none" /><text fill="#e1ed5e" style="font-size:6.75px; font-family:Arial;" text-anchor="middle"><textPath startOffset="22.145653131862435" xlink:href="#id10">October</textPath></text><path d="M 79.00077361379809 100.18025310272382 l -6.307191987206856 0.054139657540712295 a27.307424344849885,27.307424344849885 0 0,0 0.0,-0.46878552052905736 l 6.307191987206856 0.05413965754070998" fill="#ff5007" stroke="none" /><path d="M 79.00696218219943 99.45929381324524 l -8.498868738306205 -0.21890071113587187 a29.50168732383721,29.50168732383721 0 0,0 0.017385362607311165,-0.5061558632174339 l 8.493858688702042 0.36476283891744427" fill="#ff6e0a" stroke="none" /><path d="M 79.03789590574601 98.7389718711861 l -6.286857077209008 -0.37820171012157683 a27.298222641570547,27.298222641570547 0 0,0 0.03215475692317262,-0.46752310866381624 l 6.279438359120772 0.486068242939718" fill="#ff5007" stroke="none" /><path d="M 79.0935383218832 98.0201363427161 l -13.259144034518828 -1.2556547255490038 a34.3184672285481,34.3184672285481 0 0,0 0.06057635589803363,-0.5860212928733052 l 13.23563528613913 1.4830805407052219" fill="#ffae10" stroke="none" /><path d="M 79.2786578344484 96.59031103205396 l -10.637602051328223 -1.750413369463727 a31.780655099131025,31.780655099131025 0 0,0 0.09320083069030181,-0.5375576242647159 l 10.605986403145685 1.9327640266490356" fill="#ff8d0d" stroke="none" /><path d="M 79.34024301695615 96.23510406497455 l -6.2283305037405 -1.1350092943868118 a27.330904118857656,27.330904118857656 0 0,0 0.0880754103335192,-0.4608477639908531 l 6.2079288011248215 1.2417596234109793" fill="#ff5107" stroke="none" /><path d="M 79.48165901384962 95.52812308129327 l -5.919922606443459 -1.2902195787736304 a27.05889018119087,27.05889018119087 0 0,0 0.1028097873696698,-0.45299889282959993 l 5.8969019575161274 1.3916528055422386" fill="#ff4d07" stroke="none" /><path d="M 79.64726062577567 94.8264132398404 l -6.799966548305837 -1.728524905517 a28.01622002270959,28.01622002270959 0 0,0 0.12248493838923855,-0.46509526160467196 l 6.769292129111873 1.8450006714944565" fill="#ff5a08" stroke="none" /><path d="M 80.05021161711548 93.44210830539832 l -12.90822342690036 -4.243189430317815 a34.58774773758845,34.58774773758845 0 0,0 0.1902566237461389,-0.5624599017188838 l 12.833481381581855 4.464151006510861" fill="#ffb110" stroke="none" /><path d="M 80.41425534168474 92.42381321644754 l -5.874065736143839 -2.2722148160446483 a27.298222641570547,27.298222641570547 0 0,0 0.17281247090666382,-0.43560031614606826 l 5.834194590271044 2.372716149404299" fill="#ff5007" stroke="none" /><path d="M 80.9802524753101 91.09779779509293 l -6.496136099894498 -3.040519703891289 a28.172485224669597,28.172485224669597 0 0,0 0.20877252646555694,-0.436254284800886 l 6.442984315469036 3.1515864907572624" fill="#ff5c08" stroke="none" /><path d="M 81.46374523516351 90.13048839642627 l -10.995954622967883 -5.854726487123193 a33.45748129877748,33.45748129877748 0 0,0 0.2742790950353325,-0.5046426421667177 l 10.8938301783172 6.04262396276453" fill="#ffa30f" stroke="none" /><line stroke="#e1ed5e" stroke-width="0.3" x1="26.387840678322718" x2="22.05771365940052" y1="57.49999999999999" y2="54.99999999999999" /><path d="M 25.521815274538284 56.99999999999999 a86.0,86.0 0 0,1 29.574782752854787,-30.34633250058573" fill="none" id="id11" stroke="none" /><text fill="#e1ed5e" style="font-size:6.75px; font-family:Arial;" text-anchor="middle"><textPath startOffset="21.40746469413373" xlink:href="#id11">November</textPath></text><path d="M 81.81346652052679 89.5 l -5.454420806290426 -3.1491113207852743 a27.298222641570547,27.298222641570547 0 0,0 0.23778869466065494,-0.40381718910789666 l 5.399558401499992 3.2422796781867436" fill="#ff5007" stroke="none" /><path d="M 82.18462484594161 88.88188828441811 l -4.007328541548713 -2.50086939066388 a25.723666981177914,25.723666981177914 0 0,0 0.23700354606500848,-0.3726089396568614 l 3.9638073038578145 2.5692920049994137" fill="#ff3a05" stroke="none" /><path d="M 82.78059297857968 87.97951657250589 l -8.159804713527308 -5.696177412412023 a30.95132403635694,30.95132403635694 0 0,0 0.30786972722387235,-0.4330573269226038 l 8.060819887773462 5.8354119660441475" fill="#ff820c" stroke="none" /><path d="M 83.64595745247003 86.82634096563983 l -6.328533606305694 -5.09781869985123 a29.126382534848666,29.126382534848666 0 0,0 0.3169965415434324,-0.3866842377663179 l 6.240090245523632 5.20570521931604" fill="#ff6909" stroke="none" /><path d="M 84.83555147118756 85.47280134310135 l -4.047765477775096 -3.877667763549066 a26.60541815099779,26.60541815099779 0 0,0 0.31877496989014553,-0.3270912016493787 l 3.980603706734148 3.946581657266175" fill="#ff4706" stroke="none" /><path d="M 85.34317274990677 84.96080404539775 l -9.385787888436003 -9.630645216318808 a34.44776344115691,34.44776344115691 0 0,0 0.427033363054122,-0.4090883019203733 l 9.21908203951658 9.790345648544749" fill="#ffb010" stroke="none" /><path d="M 86.68645165197937 83.75963576809568 l -3.3453590686879062 -4.080794116023412 a26.276770595337997,26.276770595337997 0 0,0 0.3512944334377657,-0.282977928749292 l 3.274813864894895 4.137620338566103" fill="#ff4206" stroke="none" /><path d="M 87.25179093698888 83.31218511350988 l -4.592870328777603 -6.0122146934881 a28.565790333967755,28.565790333967755 0 0,0 0.3922314410572249,-0.29433778568745445 l 4.488985898809626 6.090171506439556" fill="#ff6209" stroke="none" /><path d="M 88.4268655584334 82.4767994020092 l -0.34922378171960067 -0.5287693158287675 a21.633683074636338,21.633683074636338 0 0,0 0.31164285510835665,-0.2020031335190792 l 0.34009529435421804 0.534686291051753" fill="#ff0000" stroke="none" /><line stroke="#e1ed5e" stroke-width="0.3" x1="56.869717070023135" x2="54.33264160355391" y1="26.7553504044142" y2="22.446841604673864" /><path d="M 56.362301976729285 25.89364864446614 a86.0,86.0 0 0,1 42.16139366436587,-11.88097634709845" fill="none" id="id12" stroke="none" /><text fill="#e1ed5e" style="font-size:6.75px; font-family:Arial;" text-anchor="middle"><textPath startOffset="22.145653131862474" xlink:href="#id12">December</textPath></text><path d="M 89.34428304082924 81.90426304109057 l -3.1983666840281075 -5.431525859224408 a27.303254921461164,27.303254921461164 0 0,0 0.40591818278132313,-0.23435697209775938 l 3.1046560333863846 5.485629728598341" fill="#ff5007" stroke="none" /><path d="M 90.28995756902619 81.37971332152246 l -3.5013795493482482 -6.714356960073994 a28.57246644996782,28.57246644996782 0 0,0 0.43684958026602977,-0.22305850836033123 l 3.3856027473686363 6.773473420107159" fill="#ff6209" stroke="none" /><path d="M 90.93487009805054 81.0573650232925 l -2.723850398799348 -5.691799719772274 a27.309987721465003,27.309987721465003 0 0,0 0.4246199626232603,-0.19874358282649926 l 2.625741722304565 5.737719534169316" fill="#ff5007" stroke="none" /><path d="M 91.26138138417902 80.90454125486306 l -1.4578770276449402 -3.1857244103176168 a24.503461923045315,24.503461923045315 0 0,0 0.3839886144053285,-0.1717532230855091 l 1.402975010383993 3.2102813843129714" fill="#ff2904" stroke="none" /><path d="M 91.5904679813234 80.7573450057729 l -2.5305894843504477 -5.790483973570491 a27.319302792751884,27.319302792751884 0 0,0 0.43133917032738134,-0.1841130428002398 l 2.4308152388526354 5.8330716660301345" fill="#ff5107" stroke="none" /><path d="M 92.25597844496254 80.48000691201159 l -2.7334312250035815 -6.890032296443348 a28.412434910868154,28.412434910868154 0 0,0 0.45490708129195523,-0.17596783156086443 l 2.614751881218097 6.935940016142252" fill="#ff6008" stroke="none" /><path d="M 92.592206182469 80.34994680014964 l -2.585287547570623 -6.857782370568907 a28.328907882195644,28.328907882195644 0 0,0 0.45651474995837693,-0.16763853957288471 l 2.4671836459581193 6.9011517591505145" fill="#ff5e08" stroke="none" /><path d="M 92.93061703081487 80.22567764915836 l -2.3556984185035996 -6.5893077361782115 a27.997734739256583,27.997734739256583 0 0,0 0.45395557497771105,-0.15790931366888128 l 2.242237071480884 6.628775482415679" fill="#ff5a08" stroke="none" /><path d="M 93.27111125876988 80.10723608172694 l -2.227940871515651 -6.5865113074867265 a27.953118130063693,27.953118130063693 0 0,0 0.4558717795901405,-0.14985410871537244 l 2.1145463542777496 6.623786337604128" fill="#ff5908" stroke="none" /><path d="M 93.95794788825049 79.88797359093562 l -4.1695703522837615 -13.879143623490075 a35.49192687823496,35.49192687823496 0 0,0 0.5850083395325975,-0.17028740163504894 l 3.9307020003695397 13.948674719427645" fill="#ffbd11" stroke="none" /><path d="M 94.6519064749342 79.69241777938228 l -1.7517769382840298 -6.651782366866365 a27.87858496332335,27.87858496332335 0 0,0 0.4638395246929402,-0.11790619334659456 l 1.6373321203657116 6.680873792048222" fill="#ff5808" stroke="none" /><path d="M 95.00130118170881 79.60360301121753 l -1.5496866748159643 -6.323250465123621 a27.510378271251852,27.510378271251852 0 0,0 0.4596431987540298,-0.10847454336240737 l 1.4409113223220285 6.348921152132261" fill="#ff5307" stroke="none" /><path d="M 95.35216902796891 79.52079915486377 l -1.535507958778413 -6.765731386609883 a27.937788256154114,27.937788256154114 0 0,0 0.46860662001688097,-0.10213063178066656 l 1.4191389221424136 6.791093476524264" fill="#ff5908" stroke="none" /><path d="M 95.70440661134978 79.44403061299748 l -1.4191440754002302 -6.791118136728417 a27.93781344904468,27.93781344904468 0 0,0 0.470291201943678,-0.09407141166201152 l 1.3023563879255755 6.8144789450532945" fill="#ff5908" stroke="none" /><path d="M 96.05791012581881 79.37332000966035 l -0.16815521418606955 -0.8798591362515596 a21.895783609865298,21.895783609865298 0 0,0 0.36979399657627043,-0.06738878466235067 l 0.1530264840587606 0.8826160948452717" fill="#ff0400" stroke="none" /><path d="M 96.41257539226777 79.30868818359171 l -10.762273823196677 -62.07393544922487 a84.0,84.0 0 0,0 1.4228899877877086,-0.23413600601732654 l 9.695106332355897 62.24953745373786" fill="#4dd2ff" stroke="none" /><path d="M 97.12497278360702 79.19773525538626 l -0.9504236526524871 -6.8767920975804 a27.942159222667364,27.942159222667364 0 0,0 0.47571150601725115,-0.06159037853008059 l 0.8322343247444419 6.892094072310876" fill="#ff5908" stroke="none" /><path d="M 97.48249496171623 79.15144685158666 l -0.7751964558989088 -6.419738695850937 a27.4663725896552,27.4663725896552 0 0,0 0.46858167676806384,-0.05250555424970902 l 0.6648788775300457 6.432100010607616" fill="#ff5307" stroke="none" /><path d="M 98.1996594967304 79.07731436759882 l -0.5944982033907238 -6.9089702731132805 a27.93450058393521,27.93450058393521 0 0,0 0.4781202678731484,-0.03700953257728835 l 0.4758089407423583 6.918157572685622" fill="#ff5908" stroke="none" /><path d="M 98.9189461498227 79.02784411241856 l -0.35713540707614 -6.92833148778603 a27.937530029025808,27.937530029025808 0 0,0 0.47916088709029137,-0.02057723019406265 l 0.2381487593850285 6.933441286405921" fill="#ff5908" stroke="none" /><path d="M 99.63950707515114 79.00309439819443 l -0.13407072438347176 -7.80894755431251 a28.810098390234277,28.810098390234277 0 0,0 0.494563649232322,-0.004245234116201575 l 1.9129223989252605e-15 7.810098390234277" fill="#ff6509" stroke="none" /></svg>