<?xml version="1.0" encoding="utf-8" ?>
<svg baseProfile="full" height="200mm" version="1.1" viewBox="0,0,200,200" width="200mm" xmlns="http://www.w3.org/2000/svg" xmlns:ev="http://www.w3.org/2001/xml-events" xmlns:xlink="http://www.w3.org/1999/xlink"><defs /><rect fill="#1a1a1a" height="200" width="200" x="0" y="0" /><text alignment-baseline="middle" fill="#e1ed5e" style="dominant-baseline: central; font-size:9.0px; font-family:Arial;" text-anchor="middle" x="100.0" y="100.0">2025</text><line stroke="#e1ed5e" stroke-width="0.3" x1="100.0" x2="100.0" y1="15.0" y2="10.0" /><path d="M 100.0 14.0 a86.0,86.0 0 0,1 42.46469731375804,11.215312516191453" fill="none" id="id13" stroke="none" /><text fill="#e1ed5e" style="font-size:6.75px; font-family:Arial;" text-anchor="middle"><textPath startOffset="22.20632615414155" xlink:href="#id13">January</textPath></text><path d="M 100.36148047927253 79.00311137660856 l 0.7084415858888277 -41.150407637563916 a62.15650541795665,62.15650541795665 0 0,0 1.0696050241626394,0.02762474213192088 l -1.4166732452463349 41.13211610328963" fill="#31ff3e" stroke="none" /><path d="M 102.16513564639614 79.11191278185805 l 1.2842610175800817 -12.389873212204483 a33.4562548374613,33.4562548374613 0 0,0 0.5723143196895202,0.06430618223612973 l -1.4973420407793272 12.365931076497754" fill="#ff860c" stroke="none" /><path d="M 102.88285421437855 79.19881850522331 l 2.253844766544904 -16.262575407428063 a37.418013738390094,37.418013738390094 0 0,0 0.6372305906473816,0.09391122455970478 l -2.5334443376209417 16.221369698707388" fill="#ffbc11" stroke="none" /><path d="M 103.59715602781102 79.31037775812273 l 3.710903558396338 -21.34385948389886 a42.664051857585136,42.664051857585136 0 0,0 0.7224545235274342,0.13202394636153808 l -4.077753203026673 21.276820056186583" fill="#feff18" stroke="none" /><path d="M 103.95276090670814 79.375362276772 l 4.212072883102438 -21.977670627735485 a43.37765770123839,43.37765770123839 0 0,0 0.7321189984740917,0.14685618367595557 l -4.589758291043655 21.90191048798232" fill="#f5ff19" stroke="none" /><path d="M 104.66035177308747 79.52364482259891 l 0.909417870766884 -3.995742002574584 a25.097925696594427,25.097925696594427 0 0,0 0.4204217031636441,0.09950023385839156 l -0.9780632608930516 3.9794958565753236" fill="#ff0d01" stroke="none" /><path d="M 105.01212808612495 79.60689891045804 l 3.885829779310119 -15.810473743796544 a37.280993614551086,37.280993614551086 0 0,0 0.6218666992460755,0.15852766807747531 l -4.1574053672412195 15.741243079550202" fill="#ffba11" stroke="none" /><path d="M 105.36241919743992 79.69619591428918 l 5.7156924273269984 -21.64140754121422 a43.38346845975232,43.38346845975232 0 0,0 0.7203765249862952,0.1969061166596372 l -6.087366841537004 21.53981488372829" fill="#f5ff19" stroke="none" /><path d="M 106.0581310904928 79.89281104454417 l 4.727030274727238 -15.689210007565116 a37.38585139318886,37.38585139318886 0 0,0 0.6145782264091508,0.19095244655883653 l -4.996393873847107 15.60551742612376" fill="#ffbb11" stroke="none" /><path d="M 106.40334571778207 80.00007090966166 l 6.821948336594781 -21.307374145200065 a43.372822174922604,43.372822174922604 0 0,0 0.7090778524036153,0.23377181954028114 l -7.1877090112408135 21.186788601400547" fill="#f6ff19" stroke="none" /><path d="M 106.74666289553966 80.11325718540242 l 7.216266141821295 -21.27096478156102 a43.46171052631579,43.46171052631579 0 0,0 0.7063935208011538,0.24644682900715115 l -7.581341666685723 21.14359709938166" fill="#f4ff19" stroke="none" /><path d="M 107.08798089147638 80.2323363322302 l 6.1818083189517345 -17.240439778077025 a39.31522639318885,39.31522639318885 0 0,0 0.6350676028010542,0.23390075766759763 l -6.4776582475253655 17.131475752603105" fill="#ffd513" stroke="none" /><path d="M 108.09893153111575 80.62456947434976 l 8.980144803031711 -21.4835958389007 a44.28492840557276,44.28492840557276 0 0,0 0.7007905235364221,0.30004192941328117 l -9.348619084358448 21.32583438152463" fill="#eaff1a" stroke="none" /><path d="M 108.76106565485865 80.91482961587045 l 6.041126029353681 -13.160033736110064 a35.4803898993808,35.4803898993808 0 0,0 0.5528550784125268,0.2595728722919445 l -6.266759319065806 13.054095881178117" fill="#ffa20e" stroke="none" /><path d="M 109.41281617654863 81.2277094730956 l 14.324747131959494 -28.568316839709514 a52.958521671826624,52.958521671826624 0 0,0 0.8113737590816105,0.41561715332937893 l -14.81438137862986 28.317507161067635" fill="#84ff25" stroke="none" /><line stroke="#e1ed5e" stroke-width="0.3" x1="143.23703022742887" x2="145.7803849466894" y1="26.81831364943548" y2="22.513508569990506" /><path d="M 143.74570117128098 25.957352633546492 a86.0,86.0 0 0,1 28.547481713284135,27.462654790039103" fill="none" id="id14" stroke="none" /><text fill="#e1ed5e" style="font-size:6.75px; font-family:Arial;" text-anchor="middle"><textPath startOffset="19.985693538727396" xlink:href="#id14">February</textPath></text><path d="M 111.90073688211348 82.69761687909136 l 8.582600505266768 -12.478172031432848 a36.14482778637771,36.14482778637771 0 0,0 0.5095884748884779,0.3569992923134287 l -8.796120119738896 12.328587896355485" fill="#ffab0f" stroke="none" /><path d="M 116.38621287248628 86.86637796730983 l 7.94842299054466 -6.370696153291159 a31.186422213622293,31.186422213622293 0 0,0 0.3321293366166848,0.42177052924098346 l -8.056906407755308 6.232933230097138" fill="#ff6609" stroke="none" /><path d="M 116.60985879189232 87.15038557335679 l 21.049316009374305 -16.284039380097184 a47.61284732972136,47.61284732972136 0 0,0 0.4959083459736254,0.6525572535783756 l -21.326500295572046 15.919297350637773" fill="#c2ff1e" stroke="none" /><path d="M 117.04232023915458 87.72973835380427 l 20.88173932190305 -15.034596317391753 a46.731034249226006,46.731034249226006 0 0,0 0.4643893862536189,0.6568458534504226 l -21.137441327960552 14.672923963609536" fill="#ccff1d" stroke="none" /><path d="M 117.45458315368197 88.32363383020206 l 22.319322059284353 -14.930667477491633 a47.85287635448917,47.85287635448917 0 0,0 0.4521034131681832,0.6885845152874535 l -22.573022107810463 14.544264898226505" fill="#bfff1e" stroke="none" /><path d="M 117.65298651832404 88.62581576622439 l 22.646684386113026 -14.591727027290236 a47.940505030959756,47.940505030959756 0 0,0 0.4409896473339691,0.6975397181894613 l -22.89450162969295 14.19973966138657" fill="#beff1f" stroke="none" /><line stroke="#e1ed5e" stroke-width="0.3" x1="172.23445277983987" x2="176.4835382374775" y1="55.19839476539836" y2="52.563006222186495" /><path d="M 173.08426987136738 54.67131705675599 a86.0,86.0 0 0,1 12.851231095245387,41.99856678651699" fill="none" id="id15" stroke="none" /><text fill="#e1ed5e" style="font-size:6.75px; font-family:Arial;" text-anchor="middle"><textPath startOffset="22.20632615414155" xlink:href="#id15">March</textPath></text><path d="M 117.84615892207809 88.93136811851018 l 21.717632397603392 -13.469816076175434 a46.55565499226006,46.55565499226006 0 0,0 0.4165272415944169,0.6846612667172634 l -21.946275437484033 13.09398703625109" fill="#cfff1d" stroke="none" /><path d="M 118.03404312379186 89.2402003453031 l 23.142740678554954 -13.807843945617563 a47.94889609133127,47.94889609133127 0 0,0 0.41679081434762194,0.7124306064475807 l -23.376991167372903 13.407433926816086" fill="#beff1f" stroke="none" /><path d="M 118.3937258080291 89.86733742301442 l 12.840959667644137 -7.073776832104509 a35.66044214396285,35.66044214396285 0 0,0 0.2915528140193783,0.5402030851793909 l -12.96082058088198 6.85169276359266" fill="#ffa40f" stroke="none" /><path d="M 118.73160827565052 90.50648371742162 l 34.47210346821323 -17.47108260830017 a59.64666408668731,59.64666408668731 0 0,0 0.45626854029799363,0.9198095353570346 l -34.767732021464624 16.875113484444185" fill="#3dff2e" stroke="none" /><path d="M 118.89224826269711 90.83032412892265 l 19.232440333774235 -9.334793912207846 a42.37814628482972,42.37814628482972 0 0,0 0.3128754448399176,0.6589954800193238 l -19.39027397245591 9.002356016547981" fill="#fffc17" stroke="none" /><path d="M 119.04729006885535 91.15688171328212 l 22.1097832455028 -10.264947287875485 a45.376457043343656,45.376457043343656 0 0,0 0.32281607365179793,0.7112824273996331 l -22.283201636117944 9.88284285163379" fill="#ddff1b" stroke="none" /><path d="M 119.196687751892 91.48605970444005 l 2.9721806704095175 -1.3181945293135233 a24.251383513931888,24.251383513931888 0 0,0 0.16595948143428887,0.383057364596646 l -2.994430861686487 1.2668380201302745" fill="#ff0000" stroke="none" /><path d="M 119.47837535516314 92.15188598940014 l 39.12841143121459 -15.765392563113934 a63.18507062693498,63.18507062693498 0 0,0 0.3977844708600531,1.0123180899124962 l -39.393989451956344 15.089525468305654" fill="#32ff4b" stroke="none" /><path d="M 120.08093135843002 93.85539295169968 l 16.894268622164763 -5.169513315828022 a38.66748935758514,38.66748935758514 0 0,0 0.18927570854551257,0.638143595220491 l -16.98075022782198 4.877940333861002" fill="#ffcc13" stroke="none" /><path d="M 120.18372546131832 94.20196356495316 l 25.952588038241807 -7.45521689332662 a48.0021681501548,48.0021681501548 0 0,0 0.22129737706823593,0.7961244084800818 l -26.077072185876407 7.007381181427586" fill="#bdff1f" stroke="none" /><path d="M 120.28053869075195 94.5502522615342 l 10.256289880668563 -2.7560506865486385 a31.62013641640867,31.62013641640867 0 0,0 0.1367249701605395,0.526857083654017 l -10.302211182699406 2.579097177345771" fill="#ff6c09" stroke="none" /><path d="M 120.45610955862082 95.25157060432595 l 26.366136103120983 -6.120310187214482 a48.0671633126935,48.0671633126935 0 0,0 0.18015026445708152,0.807578311644064 l -26.4675807545801 5.665553706020455" fill="#bcff1f" stroke="none" /><path d="M 120.53481517161879 95.60439243477599 l 23.55150190274199 -5.041348513287819 a45.08502515479876,45.08502515479876 0 0,0 0.15590982240150292,0.7602716642761516 l -23.63479102105849 4.635201192848255" fill="#e0ff1b" stroke="none" /><path d="M 120.6074358757038 95.95851677861258 l 13.585735214050604 -2.6644033371727125 a34.84453850619195,34.84453850619195 0 0,0 0.11036472640163765,0.5895727815214231 l -13.6295856643621 2.430152478188727" fill="#ff990e" stroke="none" /><path d="M 120.67395015179393 96.31383870115 l 42.45686491104329 -7.570050771937738 a64.12645414086688,64.12645414086688 0 0,0 0.18440367585122558,1.0883609333675068 l -42.58088044841474 6.838104050254394" fill="#33ff56" stroke="none" /><path d="M 120.94382443527127 98.46500227214037 l 26.165718030391247 -1.917716501520425 a47.235899767801854,47.235899767801854 0 0,0 0.05245301266475266,0.8114248896707941 l -26.194851634060417 1.4670325475965957" fill="#c6ff1e" stroke="none" /><path d="M 120.96714384426684 98.82574320788733 l 43.08226721377645 -2.4128057341116063 a64.14977844427244,64.14977844427244 0 0,0 0.05225577341914893,1.1030367861343848 l -43.11741659542909 1.6708578413542217" fill="#33ff56" stroke="none" /><line stroke="#e1ed5e" stroke-width="0.3" x1="184.98032266829074" x2="189.97916517819016" y1="98.17113171792111" y2="98.06355123074" /><path d="M 185.9800911702706 98.14961562048488 a86.0,86.0 0 0,1 -9.607161424134198,41.387399972396054" fill="none" id="id16" stroke="none" /><text fill="#e1ed5e" style="font-size:6.75px; font-family:Arial;" text-anchor="middle"><textPath startOffset="21.466115282336823" xlink:href="#id16">April</textPath></text><path d="M 120.9904718944345 100.63252640178507 l 22.786461022654418 0.6866466972520463 a43.796804373065015,43.796804373065015 0 0,0 -0.029193421388381286,0.7533524879822646 l -22.771265468414832 -1.078776432248317" fill="#f0ff19" stroke="none" /><path d="M 120.95626037817324 101.35467743843564 l 60.853403624737226 3.9337520843322906 a81.98041602167183,81.98041602167183 0 0,0 -0.10315260540103986,1.4074353455706319 l -60.77667446067185 -4.980660566399693" fill="#4ae5ff" stroke="none" /><path d="M 120.76222939487914 103.15116336523771 l 17.671477471434414 2.6820680649710007 a38.873852554179564,38.873852554179564 0 0,0 -0.10610385855350093,0.6607088284966925 l -17.622691858519627 -2.985856123160898" fill="#ffcf13" stroke="none" /><path d="M 120.64145759157962 103.86396538481128 l 42.38921822708412 7.9350245103563 a64.12551954334366,64.12551954334366 0 0,0 -0.2124388901238466,1.0832213239351136 l -42.24634940398461 -8.663509561359358" fill="#33ff56" stroke="none" /><path d="M 120.49622156327973 104.57218783832717 l 9.953120657824709 2.2202890949734186 a31.1977592879257,31.1977592879257 0 0,0 -0.121432723258566,0.5231289936082646 l -9.91342736863559 -2.3912867459302483" fill="#ff6609" stroke="none" /><path d="M 120.32669344350535 105.2749913415812 l 12.136310337296624 3.1495005385854875 a33.53831656346749,33.53831656346749 0 0,0 -0.1498235234798724,0.5575490665873899 l -12.080298737474976 -3.3579405383484255" fill="#ff870c" stroke="none" /><path d="M 120.02730092923936 106.31721596034902 l 41.5180325447042 13.096042185633486 a64.53450754643963,64.53450754643963 0 0,0 -0.3432859318946568,1.056525461136058 l -41.2864543617933 -13.80876654674734" fill="#34ff5b" stroke="none" /><path d="M 119.41010516605496 108.01547362559984 l 21.338214422744553 8.811693365887384 a44.08604198916409,44.08604198916409 0 0,0 -0.29568932177563956,0.6989222114639946 l -21.183374119776605 -9.177690103017543" fill="#edff1a" stroke="none" /><path d="M 119.26925614724726 108.34839909993367 l 18.90434088038754 8.190299676576377 a41.60230843653251,41.60230843653251 0 0,0 -0.2903423427206295,0.6546453346950696 l -18.76055745293564 -8.514493347764134" fill="#fff216" stroke="none" /><path d="M 118.81262510543309 109.33194174019688 l 23.673675656936126 11.743250118934377 a47.426252902476776,47.426252902476776 0 0,0 -0.36906958744645585,0.7282093096726907 l -23.4680273997034 -12.149013640309763" fill="#c4ff1e" stroke="none" /><line stroke="#e1ed5e" stroke-width="0.3" x1="174.80103733775053" x2="179.2010983576182" y1="140.37084112569926" y2="142.7455964860345" /><path d="M 175.68104954172406 140.8457921977663 a86.0,86.0 0 0,1 -30.038265399797805,32.042727171017184" fill="none" id="id17" stroke="none" /><text fill="#e1ed5e" style="font-size:6.75px; font-family:Arial;" text-anchor="middle"><textPath startOffset="22.206326154141568" xlink:href="#id17">May</textPath></text><path d="M 118.48025628344425 109.97397251340804 l 11.836160737824072 6.388090081255878 a34.44999613003096,34.44999613003096 0 0,0 -0.2861377152086476,0.5194230674213964 l -11.724446613163915 -6.590883667075079" fill="#ff930d" stroke="none" /><path d="M 118.12598468904814 110.60418214915192 l 9.912753097322556 5.799223669602382 a32.484496904024766,32.484496904024766 0 0,0 -0.2865119080927198,0.48021043809756103 l -9.811460313531608 -5.968996201586047" fill="#ff780b" stroke="none" /><path d="M 117.75023020441432 111.22182372390056 l 18.918334798332733 11.960307883997293 a43.38196497678019,43.38196497678019 0 0,0 -0.4044751314095569,0.6277543861622632 l -18.709654803546126 -12.28418387008101" fill="#f5ff19" stroke="none" /><path d="M 117.35343817320211 111.8261652097733 l 21.8426665201253 14.885521837850344 a47.432571594427245,47.432571594427245 0 0,0 -0.4656051085448695,0.6707388853288069 l -21.583200504418294 -15.25930198536617" fill="#c4ff1e" stroke="none" /><path d="M 116.498646956653 112.99209946851258 l 49.495940869959 38.97629840553772 a84.0,84.0 0 0,0 -0.9043283517805842,1.1282886656869988 l -48.81769460612357 -39.822514904802965" fill="#4dd2ff" stroke="none" /><path d="M 116.0416608686014 113.55231037782055 l 12.432954541023426 10.503604348292976 a37.275873645510835,37.275873645510835 0 0,0 -0.41830184937418236,0.4865795530950371 l -12.250310182078465 -10.716061000549542" fill="#ffba11" stroke="none" /><path d="M 115.56566222782051 114.09645910891815 l 17.28213189636011 15.650915587552323 a44.315729489164084,44.315729489164084 0 0,0 -0.51691891050765,0.5610133846313217 l -17.010166577856737 -15.946080226984979" fill="#eaff1a" stroke="none" /><path d="M 115.32070863581623 114.36230785411682 l 9.010432475771328 8.446776725015713 a33.35054373065015,33.35054373065015 0 0,0 -0.3962258175593601,0.41544118562104587 l -8.863700106833003 -8.600625027219266" fill="#ff840c" stroke="none" /><path d="M 115.07121518719521 114.62390073753431 l 12.314783832926436 11.949280409048681 a38.15923084365325,38.15923084365325 0 0,0 -0.46147116254360504,0.4674678512817152 l -12.107272045327296 -12.159488754311061" fill="#ffc512" stroke="none" /><path d="M 114.81725581225074 114.88116024355365 l 33.2499879863601 33.39338981460823 a68.12409345975232,68.12409345975232 0 0,0 -0.8380887042706122,0.8202461914186409 l -32.670249329713684 -33.96078610894944" fill="#39ff86" stroke="none" /><path d="M 113.20401910651253 116.32954008644616 l 7.679703299235855 9.4975644813352 a33.21399090557276,33.21399090557276 0 0,0 -0.44766529822744816,0.35565238739073746 l -7.515080508291056 -9.628350782731063" fill="#ff820c" stroke="none" /><line stroke="#e1ed5e" stroke-width="0.3" x1="143.8653032363475" x2="146.44561519142675" y1="172.8068346515853" y2="177.08958963109032" /><path d="M 144.38136562736335 173.6633856474863 a86.0,86.0 0 0,1 -40.68145358897372,12.25698825130547" fill="none" id="id18" stroke="none" /><text fill="#e1ed5e" style="font-size:6.75px; font-family:Arial;" text-anchor="middle"><textPath startOffset="21.466115282336833" xlink:href="#id18">June</textPath></text><line stroke="#e1ed5e" stroke-width="0.3" x1="102.19456741930631" x2="102.32365962044197" y1="184.97166512339345" y2="189.96999836594603" /><path d="M 102.22038585953345 185.97133177190398 a86.0,86.0 0 0,1 -42.740103519485714,-10.115201625700543" fill="none" id="id19" stroke="none" /><text fill="#e1ed5e" style="font-size:6.75px; font-family:Arial;" text-anchor="middle"><textPath startOffset="22.20632615414155" xlink:href="#id19">July</textPath></text><line stroke="#e1ed5e" stroke-width="0.3" x1="58.666819895761336" x2="56.23545636021788" y1="174.27360380694188" y2="178.64263932499728" /><path d="M 58.180547188652646 175.14741091055294 a86.0,86.0 0 0,1 -31.652253787137756,-30.449443065178592" fill="none" id="id20" stroke="none" /><text fill="#e1ed5e" style="font-size:6.75px; font-family:Arial;" text-anchor="middle"><textPath startOffset="22.20632615414155" xlink:href="#id20">August</textPath></text><line stroke="#e1ed5e" stroke-width="0.3" x1="26.63291911575756" x2="22.317208475507996" y1="142.92168965132927" y2="145.44649492493687" /><path d="M 25.769776987707644 143.4266507060508 a86.0,86.0 0 0,1 -11.730757126820373,-40.83630448921669" fill="none" id="id21" stroke="none" /><text fill="#e1ed5e" style="font-size:6.75px; font-family:Arial;" text-anchor="middle"><textPath startOffset="21.46611528233685" xlink:href="#id21">September</textPath></text><line stroke="#e1ed5e" stroke-width="0.3" x1="15.007084014347285" x2="10.007500721073583" y1="101.09737516637583" y2="101.16192664675087" /><path d="M 14.007167355692545 101.11028546245083 a86.0,86.0 0 0,1 10.666146001902534,-42.60595125391555" fill="none" id="id22" stroke="none" /><text fill="#e1ed5e" style="font-size:6.75px; font-family:Arial;" text-anchor="middle"><textPath startOffset="22.20632615414155" xlink:href="#id22">October</textPath></text><line stroke="#e1ed5e" stroke-width="0.3" x1="26.266209847984243" x2="21.928928074336255" y1="57.711370442889674" y2="55.22380399835377" /><path d="M 25.398753493254645 57.213857153982495 a86.0,86.0 0 0,1 29.58750427330803,-30.492523968695096" fill="none" id="id23" stroke="none" /><text fill="#e1ed5e" style="font-size:6.75px; font-family:Arial;" text-anchor="middle"><textPath startOffset="21.46611528233685" xlink:href="#id23">November</textPath></text><line stroke="#e1ed5e" stroke-width="0.3" x1="56.762969772571076" x2="54.21961505331055" y1="26.818313649435495" y2="22.513508569990535" /><path d="M 56.25429882871897 25.957352633546506 a86.0,86.0 0 0,1 42.265352541879196,-11.944610805530505" fill="none" id="id24" stroke="none" /><text fill="#e1ed5e" style="font-size:6.75px; font-family:Arial;" text-anchor="middle"><textPath startOffset="22.20632615414155" xlink:href="#id24">December</textPath></text></svg>