<?xml version="1.0" encoding="utf-8" ?>
<svg baseProfile="full" height="200mm" version="1.1" viewBox="0,0,200,200" width="200mm" xmlns="http://www.w3.org/2000/svg" xmlns:ev="http://www.w3.org/2001/xml-events" xmlns:xlink="http://www.w3.org/1999/xlink"><defs /><rect fill="#1a1a1a" height="200" width="200" x="0" y="0" /><text alignment-baseline="middle" fill="#e1ed5e" style="dominant-baseline: central; font-size:9.0px; font-family:Arial;" text-anchor="middle" x="100.0" y="100.0">2025</text><line stroke="#e1ed5e" stroke-width="0.3" x1="100.0" x2="100.0" y1="15.0" y2="10.0" /><path d="M 100.0 14.0 a86.0,86.0 0 0,1 42.46469731375804,11.215312516191453" fill="none" id="id13" stroke="none" /><text fill="#e1ed5e" style="font-size:6.75px; font-family:Arial;" text-anchor="middle"><textPath startOffset="22.20632615414155" xlink:href="#id13">January</textPath></text><path d="M 100.36148047927253 79.00311137660856 l 0.13040042136360033 -7.574414887700165 a28.575537285295724,28.575537285295724 0 0,0 0.4917351457096109,0.012700068053686528 l -0.260762202268079 7.571048027504118" fill="#ff6209" stroke="none" /><path d="M 102.16513564639614 79.11191278185805 l 0.23638953608740962 -2.2805616153744306 a23.29278025425265,23.29278025425265 0 0,0 0.3984543921504171,0.04477099361817735 l -0.275610631747552 2.276154668285652" fill="#ff1802" stroke="none" /><path d="M 102.88285421437855 79.19881850522331 l 0.4148575028622353 -2.993396672112817 a24.022007674427247,24.022007674427247 0 0,0 0.40909595698838436,0.060290109808088126 l -0.46632244027927544 2.98581207814376" fill="#ff2303" stroke="none" /><path d="M 103.59715602781102 79.31037775812273 l 0.6830533346619533 -3.9286912649741743 a24.987627980827348,24.987627980827348 0 0,0 0.4231296391451369,0.07732423697718488 l -0.7505780949099911 3.916351546646251" fill="#ff3004" stroke="none" /><path d="M 103.95276090670814 79.375362276772 l 0.7753018593362823 -4.045354715945289 a25.11897896946696,25.11897896946696 0 0,0 0.42395285269847344,0.08504095390994777 l -0.844821121501881 4.031409805958133" fill="#ff3204" stroke="none" /><path d="M 104.66035177308747 79.52364482259891 l 0.16739343921320798 -0.7354825735452072 a21.75429117685434,21.75429117685434 0 0,0 0.3644116353779774,0.08624446042623607 l -0.1800287615537089 0.7324922009781025" fill="#ff0200" stroke="none" /><path d="M 105.01212808612495 79.60689891045804 l 0.71525140627301 -2.9101798641063112 a23.99678684854718,23.99678684854718 0 0,0 0.4002791015793413,0.10204005557855139 l -0.7652393965373763 2.897436812358892" fill="#ff2203" stroke="none" /><path d="M 105.36241919743992 79.69619591428918 l 1.0520679696873994 -3.9834599189079554 a25.120048535926287,25.120048535926287 0 0,0 0.4171149498704918,0.1140132724081206 l -1.120480808781602 3.964760105673541" fill="#ff3204" stroke="none" /><path d="M 106.0581310904928 79.89281104454417 l 0.8700883063627162 -2.8878592626401165 a24.0160876614723,24.0160876614723 0 0,0 0.39479546433342283,0.12266487253424195 l -0.9196691434068572 2.872454255223354" fill="#ff2303" stroke="none" /><path d="M 106.40334571778207 80.00007090966166 l 1.255692713883499 -3.9219755333815023 a25.118088910665143,25.118088910665143 0 0,0 0.41064149502255176,0.13538204464397932 l -1.3230170311484681 3.899779764478287" fill="#ff3204" stroke="none" /><path d="M 106.74666289553966 80.11325718540242 l 1.3282734445702722 -3.915273786258406 a25.13445028569855,25.13445028569855 0 0,0 0.40851620002313843,0.14252328076221663 l -1.3954716486566843 3.891829652323982" fill="#ff3304" stroke="none" /><path d="M 107.08798089147638 80.2323363322302 l 1.13786432874201 -3.173388824619075 a24.371221123397387,24.371221123397387 0 0,0 0.3936737594076723,0.14499336793936865 l -1.1923204139222587 3.1533321888733816" fill="#ff2803" stroke="none" /><path d="M 108.09893153111575 80.62456947434976 l 1.652944561056925 -3.954412058240694 a25.285977187093636,25.285977187093636 0 0,0 0.4001400437816558,0.1713190842905612 l -1.720768362628896 3.925373445987342" fill="#ff3505" stroke="none" /><path d="M 108.76106565485865 80.91482961587045 l 1.111969420527431 -2.422322430712366 a23.665355876899064,23.665355876899064 0 0,0 0.36875333715573727,0.17313463623704267 l -1.1535009689827664 2.4028228118353203" fill="#ff1e03" stroke="none" /><path d="M 109.41281617654863 81.2277094730956 l 2.6367072446643065 -5.258472438307079 a26.882495854524713,26.882495854524713 0 0,0 0.4118648146967658,0.21097315500387576 l -2.7268325469498276 5.212306757990702" fill="#ff4b07" stroke="none" /><line stroke="#e1ed5e" stroke-width="0.3" x1="143.23703022742887" x2="145.7803849466894" y1="26.81831364943548" y2="22.513508569990506" /><path d="M 143.74570117128098 25.957352633546492 a86.0,86.0 0 0,1 28.547481713284135,27.462654790039103" fill="none" id="id14" stroke="none" /><text fill="#e1ed5e" style="font-size:6.75px; font-family:Arial;" text-anchor="middle"><textPath startOffset="19.985693538727396" xlink:href="#id14">February</textPath></text><path d="M 111.90073688211348 82.69761687909136 l 1.579769940916289 -2.2968144772371932 a23.78765668780591,23.78765668780591 0 0,0 0.33537068607304954,0.23494859772279914 l -1.6190717665729895 2.2692810367504586" fill="#ff1f03" stroke="none" /><path d="M 116.38621287248628 86.86637796730983 l 1.4630390533084836 -1.1726322668175477 a22.874979921142476,22.874979921142476 0 0,0 0.24361409123135813,0.3093651564655233 l -1.4830072251338058 1.147274716398986" fill="#ff1202" stroke="none" /><path d="M 116.60985879189232 87.15038557335679 l 3.874475654325468 -2.997347472201266 a25.898535849115742,25.898535849115742 0 0,0 0.2697444239604729,0.3549520428460159 l -3.9254960185100543 2.9302106534742167" fill="#ff3d05" stroke="none" /><path d="M 117.04232023915458 87.72973835380427 l 3.843630386215533 -2.7673667580648953 a25.73622352929863,25.73622352929863 0 0,0 0.25575357449861896,0.36174529368506314 l -3.8906965805180347 2.700794964048039" fill="#ff3b05" stroke="none" /><path d="M 117.45458315368197 88.32363383020206 l 4.108241327235272 -2.748236931718234 a25.942717171320233,25.942717171320233 0 0,0 0.2451010654641748,0.3733057381194852 l -4.154939028057371 2.677113129621075" fill="#ff3e05" stroke="none" /><path d="M 117.65298651832404 88.62581576622439 l 4.168497791857502 -2.6858493214991372 a25.95884668229602,25.95884668229602 0 0,0 0.23878727677627717,0.3777041269715154 l -4.2141126648797345 2.613697546813416" fill="#ff3e05" stroke="none" /><line stroke="#e1ed5e" stroke-width="0.3" x1="172.23445277983987" x2="176.4835382374775" y1="55.19839476539836" y2="52.563006222186495" /><path d="M 173.08426987136738 54.67131705675599 a86.0,86.0 0 0,1 12.851231095245387,41.99856678651699" fill="none" id="id15" stroke="none" /><text fill="#e1ed5e" style="font-size:6.75px; font-family:Arial;" text-anchor="middle"><textPath startOffset="22.20632615414155" xlink:href="#id15">March</textPath></text><path d="M 117.84615892207809 88.93136811851018 l 3.9974903676979645 -2.4793430072569285 a25.703942068889862,25.703942068889862 0 0,0 0.22996974459573893,0.37800979364244924 l -4.039575910579927 2.4101654404073978" fill="#ff3b05" stroke="none" /><path d="M 118.03404312379186 89.2402003453031 l 4.259805178158571 -2.5415626418547346 a25.960391196099174,25.960391196099174 0 0,0 0.22565801237207583,0.38572269126331554 l -4.302922865000974 2.467860538237524" fill="#ff3e05" stroke="none" /><path d="M 118.3937258080291 89.86733742301442 l 2.3635915574788955 -1.3020459243385714 a23.69849747816673,23.69849747816673 0 0,0 0.1937542894139459,0.358997272107267 l -2.385653946111306 1.2611676688988456" fill="#ff1e03" stroke="none" /><path d="M 118.73160827565052 90.50648371742162 l 6.345162264726279 -3.215842462074386 a28.11355936972392,28.11355936972392 0 0,0 0.21505532442790679,0.4335384111928856 l -6.399577602107594 3.1061444623825505" fill="#ff5c08" stroke="none" /><path d="M 118.89224826269711 90.83032412892265 l 3.540049558536246 -1.718223610443576 a24.935002319234187,24.935002319234187 0 0,0 0.18409370457781268,0.38774829158888763 l -3.569101456955815 1.6570329032141482" fill="#ff3004" stroke="none" /><path d="M 119.04729006885535 91.15688171328212 l 4.069672233955885 -1.8894337631729063 a25.48689113276099,25.48689113276099 0 0,0 0.18131821347818614,0.39951064875920506 l -4.101592764397418 1.8191011055716386" fill="#ff3805" stroke="none" /><path d="M 119.196687751892 91.48605970444005 l 0.5470791375182905 -0.24263556161234562 a21.598471050650485,21.598471050650485 0 0,0 0.1478048068177329,0.34115387252963153 l -0.5511746541787041 0.2331825444961113" fill="#ff0000" stroke="none" /><path d="M 119.47837535516314 92.15188598940014 l 7.202232956888256 -2.901881925259024 a28.764861767825128,28.764861767825128 0 0,0 0.1810904886889407,0.46085554122952244 l -7.251116995458897 2.7774773791337175" fill="#ff6509" stroke="none" /><path d="M 120.08093135843002 93.85539295169968 l 3.1096702831132843 -0.9515346473950508 a24.251994381125385,24.251994381125385 0 0,0 0.11871247645999147,0.40023945548982554 l -3.125588656684978 0.8978658051586953" fill="#ff2603" stroke="none" /><path d="M 120.18372546131832 94.20196356495316 l 4.777004178003935 -1.372256292700721 a25.970196801890623,25.970196801890623 0 0,0 0.11972660101991144,0.4307202854325614 l -4.7999175495902096 1.2898247038492077" fill="#ff3e05" stroke="none" /><path d="M 120.28053869075195 94.5502522615342 l 1.8878402238180931 -0.5072968300900668 a22.9548122120769,22.9548122120769 0 0,0 0.09925624524214066,0.38247480208860035 l -1.8962928009305364 0.47472560245261597" fill="#ff1402" stroke="none" /><path d="M 120.45610955862082 95.25157060432595 l 4.853124556858726 -1.1265445778248602 a25.98216023931505,25.98216023931505 0 0,0 0.09737818326888462,0.43652730165148973 l -4.871797127129648 1.0428391066234064" fill="#ff3e05" stroke="none" /><path d="M 120.53481517161879 95.60439243477599 l 4.33504445960789 -0.9279437902402488 a25.43324826110861,25.43324826110861 0 0,0 0.0879514474233518,0.428882492957054 l -4.350375202946239 0.853185641119783" fill="#ff3705" stroke="none" /><path d="M 120.6074358757038 95.95851677861258 l 2.50067984677075 -0.4904276157278356 a23.548316884202958,23.548316884202958 0 0,0 0.07458567860447608,0.39843967751503756 l -2.508751249285085 0.44730986075023527" fill="#ff1c02" stroke="none" /><path d="M 120.67395015179393 96.31383870115 l 7.81489001274736 -1.3933933722510685 a28.93813901372177,28.93813901372177 0 0,0 0.08321525457655557,0.49114114305630197 l -7.8377171288441385 1.2586664408789285" fill="#ff6709" stroke="none" /><path d="M 120.94382443527127 98.46500227214037 l 4.816234287211372 -0.35298752195701183 a25.829152399745507,25.829152399745507 0 0,0 0.028681931848521337,0.4436967907731026 l -4.8215968100643085 0.270031666930874" fill="#ff3c05" stroke="none" /><path d="M 120.96714384426684 98.82574320788733 l 7.930005677076767 -0.4441169048566242 a28.942432238530536,28.942432238530536 0 0,0 0.023576218311799284,0.4976567061261813 l -7.936475503622063 0.30754909210744313" fill="#ff6709" stroke="none" /><line stroke="#e1ed5e" stroke-width="0.3" x1="184.98032266829074" x2="189.97916517819016" y1="98.17113171792111" y2="98.06355123074" /><path d="M 185.9800911702706 98.14961562048488 a86.0,86.0 0 0,1 -9.607161424134198,41.387399972396054" fill="none" id="id16" stroke="none" /><text fill="#e1ed5e" style="font-size:6.75px; font-family:Arial;" text-anchor="middle"><textPath startOffset="21.466115282336823" xlink:href="#id16">April</textPath></text><path d="M 120.9904718944345 100.63252640178507 l 4.194225999609334 0.12638871070400748 a25.196129864767336,25.196129864767336 0 0,0 -0.0167948608814688,0.43340073306399396 l -4.191429005876662 -0.19856669078200762" fill="#ff3304" stroke="none" /><path d="M 120.95626037817324 101.35467743843564 l 11.201078017066356 0.7240723011669284 a32.22445675486009,32.22445675486009 0 0,0 -0.04054671631598253,0.5532277296154845 l -11.186954742086037 -0.9167731672791831" fill="#ff930d" stroke="none" /><path d="M 120.76222939487914 103.15116336523771 l 3.2527284596108257 0.49367910179817975 a24.28997894940294,24.28997894940294 0 0,0 -0.06629804666576243,0.41283799987413017 l -3.243748658583775 -0.5495963313655149" fill="#ff2703" stroke="none" /><path d="M 120.64145759157962 103.86396538481128 l 7.802438518837587 1.4605728408542817 a28.93796698554999,28.93796698554999 0 0,0 -0.09586744298727294,0.48882602641356476 l -7.776141142874649 -1.5946625943357915" fill="#ff6709" stroke="none" /><path d="M 120.49622156327973 104.57218783832717 l 1.8320369011578148 0.40868102508450765 a22.87706669766102,22.87706669766102 0 0,0 -0.08904564214456231,0.38360629581780037 l -1.8247306930826996 -0.44015597825087294" fill="#ff1202" stroke="none" /><path d="M 120.32669344350535 105.2749913415812 l 2.233889163631402 0.5797177995997571 a23.30788507568349,23.30788507568349 0 0,0 -0.10412178739784045,0.38747590516302044 l -2.2235792998917847 -0.6180846379383258" fill="#ff1902" stroke="none" /><path d="M 120.02730092923936 106.31721596034902 l 7.642082347868672 2.410543724730012 a29.01324800941798,29.01324800941798 0 0,0 -0.1543335536114017,0.47498983718356874 l -7.599456543241023 -2.5417324618913764" fill="#ff6809" stroke="none" /><path d="M 119.41010516605496 108.01547362559984 l 3.927652197861503 1.621938280764437 a25.24936884419032,25.24936884419032 0 0,0 -0.1693499441532234,0.40029324281343126 l -3.8991512725159705 -1.6893060492440317" fill="#ff3405" stroke="none" /><path d="M 119.26925614724726 108.34839909993367 l 3.479657413547869 1.5075604682067847 a24.792196498199758,24.792196498199758 0 0,0 -0.1730246393288234,0.3901248845157273 l -3.4531916894877726 -1.5672336892151995" fill="#ff2e04" stroke="none" /><path d="M 118.81262510543309 109.33194174019688 l 4.357532564970172 2.161539912660486 a25.864190050645618,25.864190050645618 0 0,0 -0.20127430204653582,0.39713329283579796 l -4.319679593137367 -2.2362274171989784" fill="#ff3d05" stroke="none" /><line stroke="#e1ed5e" stroke-width="0.3" x1="174.80103733775053" x2="179.2010983576182" y1="140.37084112569926" y2="142.7455964860345" /><path d="M 175.68104954172406 140.8457921977663 a86.0,86.0 0 0,1 -30.038265399797805,32.042727171017184" fill="none" id="id17" stroke="none" /><text fill="#e1ed5e" style="font-size:6.75px; font-family:Arial;" text-anchor="middle"><textPath startOffset="22.206326154141568" xlink:href="#id17">May</textPath></text><path d="M 118.48025628344425 109.97397251340804 l 2.1786416527244423 1.1758339076880815 a23.475694817511826,23.475694817511826 0 0,0 -0.19498642765195245,0.35395700382476686 l -2.1580788156209803 -1.2131614299106532" fill="#ff1b02" stroke="none" /><path d="M 118.12598468904814 110.60418214915192 l 1.8246065822666724 1.0674432799553144 a23.113912092773166,23.113912092773166 0 0,0 -0.2038637408100763,0.3416873558181504 l -1.8059619657583688 -1.098692729659569" fill="#ff1602" stroke="none" /><path d="M 117.75023020441432 111.22182372390056 l 3.4822332261948534 2.201492993603545 a25.119771794954293,25.119771794954293 0 0,0 -0.23420615002525683,0.363493145875663 l -3.4438222127925466 -2.2611077394006607" fill="#ff3204" stroke="none" /><path d="M 117.35343817320211 111.8261652097733 l 4.020504971282011 2.7399271281307342 a25.865353110676562,25.865353110676562 0 0,0 -0.2538981155317088,0.36575917203969327 l -3.9727459485881664 -2.808727562357447" fill="#ff3d05" stroke="none" /><path d="M 116.498646956653 112.99209946851258 l 9.110548665960637 7.174234032152251 a32.59619467510479,32.59619467510479 0 0,0 -0.35092455958162583,0.4378323451958052 l -8.985706194324157 -7.329994210926307" fill="#ff980e" stroke="none" /><path d="M 116.0416608686014 113.55231037782055 l 2.288491448324379 1.9333625525886131 a23.99584443334526,23.99584443334526 0 0,0 -0.26927621332819723,0.3132290706732049 l -2.254872725425403 -1.972468722423346" fill="#ff2203" stroke="none" /><path d="M 115.56566222782051 114.09645910891815 l 3.1810629503338075 2.880810539633157 a25.291646637276642,25.291646637276642 0 0,0 -0.29501331864303965,0.32017869154895406 l -3.131003223695046 -2.935140485983446" fill="#ff3505" stroke="none" /><path d="M 115.32070863581623 114.36230785411682 l 1.6585195094592198 1.55476932191153 a23.27332237212721,23.27332237212721 0 0,0 -0.27650197426148176,0.2899112145728382 l -1.6315109838187736 -1.5830876530668754" fill="#ff1802" stroke="none" /><path d="M 115.07121518719521 114.62390073753431 l 2.266740169975368 2.1994632039800694 a24.158440973620092,24.158440973620092 0 0,0 -0.2921553604425379,0.2959518376700369 l -2.228544184477294 -2.238155535630771" fill="#ff2503" stroke="none" /><path d="M 114.81725581225074 114.88116024355365 l 6.120211644995671 6.146607129394582 a29.673970819795564,29.673970819795564 0 0,0 -0.3650605606901655,0.3572885936982814 l -6.013501131929712 -6.251045826015435" fill="#ff710a" stroke="none" /><path d="M 113.20401910651253 116.32954008644616 l 1.413576738174341 1.7481842327765647 a23.248187560333033,23.248187560333033 0 0,0 -0.31334406175495,0.24893947348413373 l -1.3832751837020396 -1.7722576202658245" fill="#ff1802" stroke="none" /><path d="M 112.92097659922987 116.55440617244103 l 3.6844424466563903 4.720522192151301 a26.988192207111947,26.988192207111947 0 0,0 -0.3686731911483899,0.28268288194122615 l -3.6026405270145068 -4.783244415919898" fill="#ff4c07" stroke="none" /><path d="M 111.45004920935366 117.60387380957326 l 2.109912263129784 3.2438838078587153 a24.869691449843696,24.869691449843696 0 0,0 -0.36086893153548727,0.23032362602849946 l -2.0537615295473666 -3.279721862711024" fill="#ff2f04" stroke="none" /><path d="M 111.1453310114006 117.79835938074945 l 2.122449292416244 3.389411694924123 a24.99911273116508,24.99911273116508 0 0,0 -0.36667841449694644,0.22524383084733124 l -2.063791677986989 -3.425443992599832" fill="#ff3104" stroke="none" /><line stroke="#e1ed5e" stroke-width="0.3" x1="143.8653032363475" x2="146.44561519142675" y1="172.8068346515853" y2="177.08958963109032" /><path d="M 144.38136562736335 173.6633856474863 a86.0,86.0 0 0,1 -40.68145358897372,12.25698825130547" fill="none" id="id18" stroke="none" /><text fill="#e1ed5e" style="font-size:6.75px; font-family:Arial;" text-anchor="middle"><textPath startOffset="21.466115282336833" xlink:href="#id18">June</textPath></text><path d="M 110.21172684928248 118.3499491758327 l 2.372858872389277 4.263905640291026 a25.87968754507726,25.87968754507726 0 0,0 -0.39112487917974165,0.21327246948627884 l -2.299111181340887 -4.304118761537076" fill="#ff3d05" stroke="none" /><path d="M 109.57404056367764 118.69057910512821 l 4.512354685251899 8.809083441223684 a30.897539890293753,30.897539890293753 0 0,0 -0.47544853703640266,0.23839976661977438 l -4.360052240532736 -8.885451048752762" fill="#ff820b" stroke="none" /><path d="M 107.59598834532513 119.57807347666477 l 1.5198119826471947 3.917198041160075 a25.201698341892993,25.201698341892993 0 0,0 -0.40578308080049647,0.15343243968075418 l -1.4521586810864235 -3.9427787309474596" fill="#ff3404" stroke="none" /><path d="M 107.2578585660854 119.70592522655815 l 1.3007214877965732 3.531609240619518 a24.763527629398368,24.763527629398368 0 0,0 -0.40126400295663706,0.14387899517084676 l -1.2397379242102013 -3.5534757768303247" fill="#ff2d04" stroke="none" /><path d="M 106.57524785965236 119.94407469862006 l 0.35280065562494944 1.070116713421984 a22.12677330592913,22.12677330592913 0 0,0 -0.3627512262496651,0.11614148733897912 l -0.3343280842843439 -1.0760310474206698" fill="#ff0801" stroke="none" /><path d="M 105.53697534728816 120.25689768951611 l 1.0546084742670458 3.8582609865126507 a24.999797104109337,24.999797104109337 0 0,0 -0.4160794293171268,0.10989035896973819 l -0.9880386021384217 -3.8758426947859728" fill="#ff3104" stroke="none" /><path d="M 104.13013068566511 120.58985236759428 l 12.390392056995317 61.76955710278282 a84.0,84.0 0 0,0 -1.4201295417131825,0.2721712066061275 l -11.32529490071043 -61.973685507737414" fill="#4dd2ff" stroke="none" /><path d="M 101.98527174616119 120.90594882070398 l 0.3538694559023586 3.726430272636543 a24.743194647442568,24.743194647442568 0 0,0 -0.42435248330969105,0.036614917842088146 l -0.2896726548511258 -3.7319694427572947" fill="#ff2d04" stroke="none" /><line stroke="#e1ed5e" stroke-width="0.3" x1="102.19456741930631" x2="102.32365962044197" y1="184.97166512339345" y2="189.96999836594603" /><path d="M 102.22038585953345 185.97133177190398 a86.0,86.0 0 0,1 -42.740103519485714,-10.115201625700543" fill="none" id="id19" stroke="none" /><text fill="#e1ed5e" style="font-size:6.75px; font-family:Arial;" text-anchor="middle"><textPath startOffset="22.20632615414155" xlink:href="#id19">July</textPath></text><path d="M 100.54218724476979 120.99299961872073 l 0.1074976020028247 4.162209900044504 a25.16359784158663,25.16359784158663 0 0,0 -0.43310183844186967,0.007456240919398178 l -0.035836073668287095 -4.163443618243062" fill="#ff3304" stroke="none" /><path d="M 98.37488393609728 120.93702456842531 l -0.3321964569223612 4.279820706112758 a25.292693765278777,25.292693765278777 0 0,0 -0.4337765418661063,-0.037428065268706005 l 0.4058173165300092 -4.273468388565389" fill="#ff3505" stroke="none" /><line stroke="#e1ed5e" stroke-width="0.3" x1="58.666819895761336" x2="56.23545636021788" y1="174.27360380694188" y2="178.64263932499728" /><path d="M 58.180547188652646 175.14741091055294 a86.0,86.0 0 0,1 -31.652253787137756,-30.449443065178592" fill="none" id="id20" stroke="none" /><text fill="#e1ed5e" style="font-size:6.75px; font-family:Arial;" text-anchor="middle"><textPath startOffset="22.20632615414155" xlink:href="#id20">August</textPath></text><line stroke="#e1ed5e" stroke-width="0.3" x1="26.63291911575756" x2="22.317208475507996" y1="142.92168965132927" y2="145.44649492493687" /><path d="M 25.769776987707644 143.4266507060508 a86.0,86.0 0 0,1 -11.730757126820373,-40.83630448921669" fill="none" id="id21" stroke="none" /><text fill="#e1ed5e" style="font-size:6.75px; font-family:Arial;" text-anchor="middle"><textPath startOffset="21.46611528233685" xlink:href="#id21">September</textPath></text><line stroke="#e1ed5e" stroke-width="0.3" x1="15.007084014347285" x2="10.007500721073583" y1="101.09737516637583" y2="101.16192664675087" /><path d="M 14.007167355692545 101.11028546245083 a86.0,86.0 0 0,1 10.666146001902534,-42.60595125391555" fill="none" id="id22" stroke="none" /><text fill="#e1ed5e" style="font-size:6.75px; font-family:Arial;" text-anchor="middle"><textPath startOffset="22.20632615414155" xlink:href="#id22">October</textPath></text><line stroke="#e1ed5e" stroke-width="0.3" x1="26.266209847984243" x2="21.928928074336255" y1="57.711370442889674" y2="55.22380399835377" /><path d="M 25.398753493254645 57.213857153982495 a86.0,86.0 0 0,1 29.58750427330803,-30.492523968695096" fill="none" id="id23" stroke="none" /><text fill="#e1ed5e" style="font-size:6.75px; font-family:Arial;" text-anchor="middle"><textPath startOffset="21.46611528233685" xlink:href="#id23">November</textPath></text><line stroke="#e1ed5e" stroke-width="0.3" x1="56.762969772571076" x2="54.21961505331055" y1="26.818313649435495" y2="22.513508569990535" /><path d="M 56.25429882871897 25.957352633546506 a86.0,86.0 0 0,1 42.265352541879196,-11.944610805530505" fill="none" id="id24" stroke="none" /><text fill="#e1ed5e" style="font-size:6.75px; font-family:Arial;" text-anchor="middle"><textPath startOffset="22.20632615414155" xlink:href="#id24">December</textPath></text></svg>